<?xml version="1.0" standalone="no"?>
<!DOCTYPE svg PUBLIC "-//W3C//DTD SVG 1.1//EN"
  "http://www.w3.org/Graphics/SVG/1.1/DTD/svg11.dtd">
<svg version="1.1" xmlns="http://www.w3.org/2000/svg" xmlns:xlink="http://www.w3.org/1999/xlink" width="7680" height="4320" viewBox="-1116 -195.5 1920 1080" id="ccdiagram"><filter id="grayscale"><feColorMatrix type="saturate" values="0"></feColorMatrix></filter><filter id="highlight"><feColorMatrix type="matrix" color-interpolation-filters="sRGB" values="0.20338 0 0 0 0
                0 0.58474 0 0 0
                0 0 0.97033 0 0
                0 0 0 1 0"></feColorMatrix></filter><defs><style type="text/css">@import url('https://fonts.googleapis.com/css2?family=Noto+Sans:ital,wght@0,100..900;1,100..900&amp;family=Roboto+Mono:ital,wght@0,100..700;1,100..700&amp;display=swap');</style></defs><g><rect x="-1116" y="-195.5" width="1920" height="1080" fill="#ffffff" id="interactionLayer"></rect><g pointer-events="auto"></g><g pointer-events="auto"><g><g class="cloud-maps_raptor_node" id="9c67ee7d-6e8e-4ed5-be41-469057961f3b"><g><polygon points="-304 176, -48 324, -304 472, -560 324" fill="#ececed"></polygon><svg x="-334" y="69" overflow="visible"><g fill="#4286c5" fill-opacity="1" stroke="none" transform="scale(1.25) matrix(0.707 0.409 -0.707 0.409 0 0)"><path stroke="none" d="M144 93.924l-14.834 8.565v19.577l16.954 9.789 14.835-8.565-6.358-3.67-8.477 4.893-10.597-6.117V106.16l8.478-4.894z"></path><path stroke="none" d="M148.24 93.924v7.342l8.476 4.894v9.788l6.358 3.671v-17.13z"></path></g></svg><polygon points="-560 336, -304 484, -304 472, -560 324" fill="#d2d2d4" stroke="#83838a"></polygon><polygon points="-304 484, -48 336, -48 324, -304 472" fill="#b8b8bb" stroke="#83838a"></polygon><polygon points="-560 342, -304 490, -304 484, -560 336" fill="#326ca2" stroke="#326ca2"></polygon><polygon points="-304 490, -48 342, -48 336, -304 484" fill="#26527b" stroke="#26527b"></polygon><polygon points="-304 176, -560 324, -560 342, -304 490, -48 342, -48 324" fill="none" stroke="#000000" stroke-width="2"></polygon><svg x="-294" y="218" overflow="visible"><clipPath id="clip-9c67ee7d-6e8e-4ed5-be41-469057961f3b"><polygon points="-10 -43, 246 105, -10 253, -266 105"></polygon></clipPath><g clip-path="url(#clip-9c67ee7d-6e8e-4ed5-be41-469057961f3b)" font-family="Noto Sans" font-size="32pt" fill="#000000" font-weight="bold"><text stroke="#ffffff" stroke-width="4" transform="matrix(0.707 0.409 -0.707 0.409 0 0)"><tspan>ECS Cluster</tspan></text><text transform="matrix(0.707 0.409 -0.707 0.409 0 0)"><tspan>ECS Cluster</tspan></text></g></svg></g></g></g></g><g pointer-events="auto"></g><g pointer-events="auto"></g><g pointer-events="auto"><g><g class="cloud-maps_raptor_node" id="3691705792"><g><g><polygon transform="translate(-176,-139) matrix(-0.707 -0.409 0.707 -0.409 0 0)" points="-1231.929 -1175.8500000000001, -1231.929 0, 0 0, 0 -1175.8500000000001" stroke-width="11.2" stroke="#3949ab" stroke-dasharray="32" fill="none"></polygon></g><g><polygon points="-176 -139, -208 -157, -432 -28, -432 9" stroke="#3949ab" stroke-width="8" fill="#3949ab"></polygon><text font-family="Roboto Mono" font-size="20pt" font-weight="bold" fill="#ffffff" transform="translate(-201 -135) matrix(0.707 -0.409 0.707 0.409 0 0)" text-anchor="end">ap-southeast-2</text></g></g></g></g></g><g pointer-events="auto"><g><g class="cloud-maps_raptor_node" id="f82e5128-0fb9-4a81-98af-25e1169b19d5"><g><g><polygon points="-304 601, 272 268, -176 9, -752 342" stroke="#8ed1fc" stroke-width="8" fill="none"></polygon></g><g><polygon points="-176 9, -208 -9, -432 120, -432 157" stroke="#8ed1fc" stroke-width="8" fill="#8ed1fc"></polygon><text font-family="Roboto Mono" font-size="20pt" font-weight="bold" fill="#000000" transform="translate(-201 13) matrix(0.707 -0.409 0.707 0.409 0 0)" text-anchor="end">vpc-main</text></g></g></g></g></g><g pointer-events="auto"></g><g pointer-events="auto"></g><g pointer-events="auto"></g><g pointer-events="auto"></g><g pointer-events="none"></g><g pointer-events="auto"><g id="df396f0a-2088-458b-8a26-2742bb38ec82-518852a2-72bd-4b16-9c48-df574e734400"><g cursor="cell"><line x1="2" y1="482" x2="-134" y2="403" stroke="red" stroke-width="8" opacity="0"></line><line x1="2" y1="482" x2="-134" y2="403" stroke="#000000" stroke-width="2" stroke-linecap="round"></line><polygon points="-144 398, -135 413, -132 405, -118 403, -144 398" stroke-linejoin="round" fill="#000000" stroke="#000000" stroke-width="1"></polygon></g></g><g id="9c67ee7d-6e8e-4ed5-be41-469057961f3b-60f48630-9051-4c5a-b720-7e3a4b75ab94"><g cursor="cell"><line x1="-160" y1="259" x2="-171" y2="200" stroke="red" stroke-width="8" opacity="0"></line><line x1="-160" y1="259" x2="-171" y2="200" stroke="#000000" stroke-width="2" stroke-linecap="round"></line><polygon points="-173 192, -181 207, -171 203, -159 206, -173 192" stroke-linejoin="round" fill="#000000" stroke="#000000" stroke-width="1"></polygon></g></g><g id="9c67ee7d-6e8e-4ed5-be41-469057961f3b-9335649a-31cd-40a9-840b-7f3695cea68d"><g cursor="cell"><line x1="-160" y1="259" x2="-61" y2="267" stroke="red" stroke-width="8" opacity="0"></line><line x1="-160" y1="259" x2="-61" y2="267" stroke="#000000" stroke-width="2" stroke-linecap="round"></line><polygon points="-48 268, -71 260, -65 267, -74 273, -48 268" stroke-linejoin="round" fill="#000000" stroke="#000000" stroke-width="1"></polygon></g></g></g><g pointer-events="auto"><g><g class="cloud-maps_raptor_node" id="9335649a-31cd-40a9-840b-7f3695cea68d"><svg x="-80" y="149" width="128" height="137.556"><g fill="#4286c5" stroke-width=".265" font-family="sans-serif" font-size="3.175"><path fill="#000" d="m.705 45.999.001 54.291 62.689 36.196v-54.29l-15.672-27.15-31.341-18.095z"></path><path fill="#000" d="m79.2 55.047 31.342-18.095 15.671 9.047-.001 54.292-62.688 36.193V82.195z"></path><path fill="#000" d="M16.378 36.952 47.72 55.048h31.345l31.343-18.096-.001-18.1L79.065.758 47.722.756 16.38 18.852zM48.59 55.048h31.346L64.262 82.195z"></path><path fill="#000" d="m16.609 18.164-.001 18.1L.933 45.31zm93.798 18.1v-18.1l15.67 27.146z"></path><path fill="none" stroke="#666" d="m263.724 108.518 16.426-16.426 16.425 32.854Z" transform="matrix(.95417 .55084 -.95417 .55084 -100.053 -150.003)" stroke-linejoin="round" stroke-width=".996"></path><path fill="none" stroke="#666" d="m230.708 125.109 49.276 49.275 65.7.002-49.274-49.274-32.853-16.429h-32.846zm49.457-33.07V59.193h16.423l49.273 49.273.004 65.698-49.274-49.274z" transform="matrix(.95417 .55084 -.95417 .55084 -100.053 -150.003)" stroke-linejoin="round" stroke-width=".972"></path><path fill="none" stroke="#666" d="M230.71 108.686h32.847l16.425-16.425V59.414l-16.428-16.427h-32.846L214.283 59.41v32.847z" transform="matrix(.95417 .55084 -.95417 .55084 -100.053 -150.003)" stroke-linejoin="round" stroke-width=".972"></path><path fill="none" stroke="#000000" d="m280.301 174.066-49.275-49.275-16.424-32.852V59.093l16.426-16.426h32.846l32.85 16.426 49.275 49.275.002 65.7z" transform="matrix(.95417 .55084 -.95417 .55084 -100.053 -150.003)" stroke-width="1.944"></path><g><path d="M241.91 74.684h2.731q3.831 0 5.733-1.5 1.902-1.527 1.902-4.42 0-2.92-1.608-4.312-1.58-1.393-4.982-1.393h-3.777zm18.75-6.214q0 6.321-3.964 9.67-3.938 3.348-11.224 3.348h-3.563v13.93h-8.304V56.254h12.51q7.125 0 10.822 3.08 3.723 3.054 3.723 9.135z" transform="matrix(.95417 .55084 -.95417 .55084 -100.053 -150.003)" font-family="Noto Sans" font-size="14.515"></path></g></g></svg></g></g><g><g class="cloud-maps_raptor_node" id="60f48630-9051-4c5a-b720-7e3a4b75ab94"><svg x="-211" y="83" width="100.626" height="115.695"><path fill="#4286c5" d="M50.313 1.155v56.693L99.41 29.501z" fill-rule="evenodd"></path><path fill="#26527b" d="m1.215 29.501 49.098 28.347V1.155z" fill-rule="evenodd"></path><path fill="none" stroke="#020406" d="M50.313 1.155v56.693"></path><path fill="#26527b" d="M50.313 57.847 99.41 29.501l-24.549 70.866-24.548 14.173z" fill-rule="evenodd"></path><path fill="#326ca2" d="m1.215 29.501 49.098 28.347v56.692l-24.55-14.173z" fill-rule="evenodd"></path><path fill="none" stroke="#0e1e2d" d="m1.215 29.501 49.098 28.347L99.41 29.501 50.313 57.848v56.692"></path><path fill="none" stroke="#000000" d="M50.313 1.155 1.214 29.501l24.549 70.866 24.549 14.173 24.548-14.173 24.549-70.866z" stroke-width="2"></path></svg></g></g><g><g class="cloud-maps_raptor_node" id="5931306c-e90a-488b-937d-acf3863a9584"><svg x="-400" y="213" width="128" height="111" fill-rule="evenodd" stroke-linejoin="round" stroke-miterlimit="1.414"><path fill="#000" d="M64 74v37l64-37V37L64 74Z"></path><path fill="#000" d="M0 37v37l64 37V74L0 37Z"></path><path fill="#000" d="M0 37 64 0l64 37-64 37L0 37Z"></path><path fill="#666" d="m64 73.407 62.111-35.86.514.889-62.487 36.078h-.276L.743 38.072l.514-.89L64 73.407Z"></path><path fill="#666" d="M63.486 74h1.027v36h-1.027z"></path><path fill="#000000" d="M128 37v37l-64 37L0 74V37L64 0l64 37ZM2.054 38.185v34.63L64 108.627l61.946-35.812v-34.63L64 2.373 2.054 38.185Z"></path></svg><svg x="-342" y="231" width="54" height="36" style="overflow: visible; cursor: default;"><rect transform="matrix(0.707 0.409 -0.707 0.409 0 0)" width="54" height="36" rx="5" ry="5" fill="#4286c5"></rect><text transform="matrix(0.707 0.409 -0.707 0.409 0 0)" font-family="Noto Sans" text-anchor="middle" x="50%" font-weight="normal" font-size="20pt" y="80%" fill="#ffffff">M5</text></svg></g></g><g><g class="cloud-maps_raptor_node" id="d1e2b6db-47bc-48ad-b961-3904e6e8f832"><svg x="-288" y="278" width="128" height="111" fill-rule="evenodd" stroke-linejoin="round" stroke-miterlimit="1.414"><path fill="#000" d="M64 74v37l64-37V37L64 74Z"></path><path fill="#000" d="M0 37v37l64 37V74L0 37Z"></path><path fill="#000" d="M0 37 64 0l64 37-64 37L0 37Z"></path><path fill="#666" d="m64 73.407 62.111-35.86.514.889-62.487 36.078h-.276L.743 38.072l.514-.89L64 73.407Z"></path><path fill="#666" d="M63.486 74h1.027v36h-1.027z"></path><path fill="#000000" d="M128 37v37l-64 37L0 74V37L64 0l64 37ZM2.054 38.185v34.63L64 108.627l61.946-35.812v-34.63L64 2.373 2.054 38.185Z"></path></svg><svg x="-230" y="296" width="54" height="36" style="overflow: visible; cursor: default;"><rect transform="matrix(0.707 0.409 -0.707 0.409 0 0)" width="54" height="36" rx="5" ry="5" fill="#4286c5"></rect><text transform="matrix(0.707 0.409 -0.707 0.409 0 0)" font-family="Noto Sans" text-anchor="middle" x="50%" font-weight="normal" font-size="20pt" y="80%" fill="#ffffff">M5</text></svg></g></g><g><g class="cloud-maps_raptor_node" id="df396f0a-2088-458b-8a26-2742bb38ec82"><svg x="2" y="446" width="123" height="108.05"><path fill="#090909" stroke="#000" d="M38.23 22.751v53.738l29.756-16.317v-54.6Z" fill-rule="evenodd" stroke-linejoin="round" stroke-width="1.011"></path><path fill="#232323" stroke="#000" d="m1 8.421 37.23 14.33v53.738L1 44.247Z" fill-rule="evenodd" stroke-linejoin="round"></path><path fill="#3c3c3c" stroke="#000" d="M38.23 22.751 67.986 5.573 13.411 1.255 1.001 8.421z" fill-rule="evenodd" stroke-linejoin="round"></path><path fill="none" stroke="#000000" d="m1 44.247 37.23 32.242 29.756-16.317v-54.6l-55.165-4.55-11.82 6.826z" stroke-width="2"></path><path fill="#3c3c3c" stroke="#000" d="M84.77 13.794 53.747 31.712l56.04 39.295L122 63.955z" fill-rule="evenodd" stroke-width="1.011"></path><path fill="#232323" stroke="#000" d="M53.747 31.712v53.739l55.847 21.494.194-35.938z" fill-rule="evenodd"></path><path fill="#090909" stroke="#000" d="M109.788 71.007 122 63.955v35.823l-12.406 7.168z" fill-rule="evenodd"></path><path fill="none" stroke="#000000" d="M84.77 13.794 53.747 31.712v53.739l55.847 21.494L122 99.778V63.955z" stroke-width="2"></path><path fill="#f4b934" d="M79.713 77.218q.615 1.415.18 2.416-.435 1-1.666 1-1.23 0-2.536-1-1.306-1.001-1.92-2.416-.616-1.415-.18-2.416.435-1.001 1.665-1.001t2.536 1.001q1.306 1 1.921 2.416zm5.943-6.835q.302.695.08 1.201-.22.507-.823.508-.603 0-1.265-.508-.663-.508-.964-1.2-.308-.708-.09-1.209.218-.5.833-.5t1.268.5q.654.5.961 1.208zm5.943 13.67q.302.694.081 1.201-.22.507-.824.508-.603 0-1.265-.508-.662-.508-.964-1.201-.307-.707-.09-1.208.218-.501.833-.501t1.269.5q.653.502.96 1.209zm-6.9-5.62-1.074-2.47q-.059-.134-.195-.26t-.247-.14l-1.939-.321q-.33-.467-.812-1.015.116-.64.377-1.535.023-.134-.034-.267-.07-.16-.19-.254-.442-.4-1.478-1.194-1.035-.794-1.257-.795-.127 0-.203.093l-.812 1.202q-.54-.254-1.074-.415-.755-1.442-1.167-2.069-.22-.32-.488-.32h-2.159q-.127 0-.188.1-.062.1-.015.233l.62 2.043q-.336.133-.69.414l-1.886-1.188q-.122-.093-.273-.093-.127 0-.197.107-.9 1.775-.743 2.136.053.12.192.253.197.187.783.707.586.52.9.814-.012.588.069 1.095l-1.625.32q-.11.016-.142.127-.03.114.03.26l1.074 2.47q.058.134.194.26.136.127.247.141l1.939.32q.33.468.812 1.015-.116.641-.377 1.536-.019.146.034.267.07.16.197.266.43.401 1.468 1.188 1.039.788 1.26.788.127 0 .203-.093l.813-1.201q.499.24 1.08.427.754 1.442 1.16 2.056.221.32.488.32h2.159q.127 0 .189-.1.06-.1.015-.234l-.621-2.042q.336-.134.69-.414l1.886 1.187q.134.093.273.093.127 0 .197-.107.9-1.775.743-2.135-.053-.12-.192-.254-.232-.214-.8-.72-.57-.507-.871-.8-.012-.642-.082-1.095l1.631-.308q.105-.026.136-.14.03-.114-.03-.26zm4.335-7.115-.812-1.87q-.093-.213-1.91-.413-.296-.36-.65-.695-.064-1.508-.21-1.842-.022-.053-.086-.093-1.829-.948-1.851-.948-.093 0-.261.628-.169.627-.21.907-.244-.026-.36-.026-.116 0-.337.026-.284-.28-.998-.907-.714-.628-.807-.628-.022 0-1.027.948-.03.04-.007.093.145.333 1.393 1.842-.064.333-.047.695-1.643.2-1.55.414l.813 1.869q.093.213 1.91.414.319.387.65.694.063 1.509.209 1.842.022.053.086.093.058.027.523.267.464.24.882.454.418.214.442.214.093 0 .263-.62.171-.621.213-.902.244.027.36.027.116 0 .337-.027 1.004.948 1.718 1.495l.081.027q.046 0 1.033-.934.03-.04.008-.093-.145-.334-1.393-1.843.064-.307.046-.694 1.643-.2 1.55-.414zm5.944 13.67-.813-1.87q-.093-.214-1.91-.414-.295-.36-.65-.694-.064-1.509-.209-1.842-.022-.053-.087-.093-1.828-.948-1.851-.948-.093 0-.26.627-.169.627-.21.908-.244-.027-.36-.027-.117 0-.337.027-.285-.28-.999-.908-.714-.627-.806-.627-.023 0-1.027.948-.03.04-.008.093.145.333 1.393 1.842-.063.333-.046.694-1.643.2-1.55.414l.812 1.87q.093.213 1.91.413.32.388.65.695.064 1.508.21 1.842.022.053.086.093.058.026.522.267.465.24.883.453.418.214.441.214.093 0 .264-.62.17-.62.212-.901.244.026.36.026.117 0 .337-.026 1.005.948 1.718 1.495l.082.026q.046 0 1.033-.934.03-.04.007-.093-.144-.333-1.393-1.842.064-.307.047-.694 1.643-.2 1.55-.414z"></path></svg></g></g><g><g class="cloud-maps_raptor_node" id="ecde545c-1357-4b91-8dfa-a625715cadab"><svg x="-496" y="268" width="128" height="111" fill-rule="evenodd" stroke-linejoin="round" stroke-miterlimit="1.414"><path fill="#000" d="M64 74v37l64-37V37L64 74Z"></path><path fill="#000" d="M0 37v37l64 37V74L0 37Z"></path><path fill="#000" d="M0 37 64 0l64 37-64 37L0 37Z"></path><path fill="#666" d="m64 73.407 62.111-35.86.514.889-62.487 36.078h-.276L.743 38.072l.514-.89L64 73.407Z"></path><path fill="#666" d="M63.486 74h1.027v36h-1.027z"></path><path fill="#000000" d="M128 37v37l-64 37L0 74V37L64 0l64 37ZM2.054 38.185v34.63L64 108.627l61.946-35.812v-34.63L64 2.373 2.054 38.185Z"></path></svg><svg x="-438" y="287" width="54" height="36" style="overflow: visible; cursor: default;"><rect transform="matrix(0.707 0.409 -0.707 0.409 0 0)" width="54" height="36" rx="5" ry="5" fill="#4286c5"></rect><text transform="matrix(0.707 0.409 -0.707 0.409 0 0)" font-family="Noto Sans" text-anchor="middle" x="50%" font-weight="normal" font-size="20pt" y="80%" fill="#ffffff">M5</text></svg></g></g><g><g class="cloud-maps_raptor_node" id="8b8f3f1f-75f5-467a-b5ab-325fcfb65a6a"><svg x="-384" y="333" width="128" height="111" fill-rule="evenodd" stroke-linejoin="round" stroke-miterlimit="1.414"><path fill="#000" d="M64 74v37l64-37V37L64 74Z"></path><path fill="#000" d="M0 37v37l64 37V74L0 37Z"></path><path fill="#000" d="M0 37 64 0l64 37-64 37L0 37Z"></path><path fill="#666" d="m64 73.407 62.111-35.86.514.889-62.487 36.078h-.276L.743 38.072l.514-.89L64 73.407Z"></path><path fill="#666" d="M63.486 74h1.027v36h-1.027z"></path><path fill="#000000" d="M128 37v37l-64 37L0 74V37L64 0l64 37ZM2.054 38.185v34.63L64 108.627l61.946-35.812v-34.63L64 2.373 2.054 38.185Z"></path></svg><svg x="-326" y="352" width="54" height="36" style="overflow: visible; cursor: default;"><rect transform="matrix(0.707 0.409 -0.707 0.409 0 0)" width="54" height="36" rx="5" ry="5" fill="#4286c5"></rect><text transform="matrix(0.707 0.409 -0.707 0.409 0 0)" font-family="Noto Sans" text-anchor="middle" x="50%" font-weight="normal" font-size="20pt" y="80%" fill="#ffffff">M5</text></svg></g></g></g><g pointer-events="auto"></g><g pointer-events="auto"></g><g pointer-events="auto"><g><g class="cloud-maps_raptor_node" id="a992e356-3b11-48d0-a2b0-0b9858225cde"><svg x="48" y="268" overflow="visible"><text stroke="#ffffff" stroke-width="4" font-family="Noto Sans" y="36.5" font-size="25pt" fill="#000000" font-weight="bold" transform="matrix(0.707 0.409 -0.707 0.409 0 0)" xml:space="preserve"><tspan x="8" dy="0">RDS</tspan></text><text font-family="Noto Sans" y="36.5" font-size="25pt" fill="#000000" font-weight="bold" transform="matrix(0.707 0.409 -0.707 0.409 0 0)" xml:space="preserve"><tspan x="8" dy="0">RDS</tspan></text></svg></g></g><g><g class="cloud-maps_raptor_node" id="62cfbd01-e095-431e-ae96-0cde0a6afb8a"><svg x="0" y="537" overflow="visible"><text stroke="#ffffff" stroke-width="4" font-family="Noto Sans" y="36.5" font-size="25pt" fill="#000000" font-weight="bold" transform="matrix(0.707 0.409 -0.707 0.409 0 0)" xml:space="preserve"><tspan x="8" dy="0">API Gateway</tspan></text><text font-family="Noto Sans" y="36.5" font-size="25pt" fill="#000000" font-weight="bold" transform="matrix(0.707 0.409 -0.707 0.409 0 0)" xml:space="preserve"><tspan x="8" dy="0">API Gateway</tspan></text></svg></g></g><g><g class="cloud-maps_raptor_node" id="339f4d90-ec1a-4c58-b2a8-9393c2663d7a"><svg x="-112" y="176" overflow="visible"><text stroke="#ffffff" stroke-width="4" font-family="Noto Sans" y="36.5" font-size="25pt" fill="#000000" font-weight="bold" transform="matrix(0.707 0.409 -0.707 0.409 0 0)" xml:space="preserve"><tspan x="8" dy="0">S3</tspan></text><text font-family="Noto Sans" y="36.5" font-size="25pt" fill="#000000" font-weight="bold" transform="matrix(0.707 0.409 -0.707 0.409 0 0)" xml:space="preserve"><tspan x="8" dy="0">S3</tspan></text></svg></g></g></g></g></svg>