<svg width="21" height="19" viewBox="0 0 21 19" fill="#000000" xmlns="http://www.w3.org/2000/svg">
  <path d="M6.11543 1.65781L5.68887 2.9375H2.625C1.17715 2.9375 0 4.11465 0 5.5625V16.0625C0 17.5104 1.17715 18.6875 2.625 18.6875H18.375C19.8229 18.6875 21 17.5104 21 16.0625V5.5625C21 4.11465 19.8229 2.9375 18.375 2.9375H15.3111L14.8846 1.65781C14.618 0.853906 13.8674 0.3125 13.0184 0.3125H7.98164C7.13262 0.3125 6.38203 0.853906 6.11543 1.65781ZM10.5 6.875C11.5443 6.875 12.5458 7.28984 13.2842 8.02827C14.0227 8.76669 14.4375 9.76821 14.4375 10.8125C14.4375 11.8568 14.0227 12.8583 13.2842 13.5967C12.5458 14.3352 11.5443 14.75 10.5 14.75C9.45571 14.75 8.45419 14.3352 7.71577 13.5967C6.97734 12.8583 6.5625 11.8568 6.5625 10.8125C6.5625 9.76821 6.97734 8.76669 7.71577 8.02827C8.45419 7.28984 9.45571 6.875 10.5 6.875Z"/>
</svg>
