<svg width="21" height="21" viewBox="0 0 21 21" fill="#000000" xmlns="http://www.w3.org/2000/svg">
<path d="M10.2293 1.04181C10.742 0.529114 11.5746 0.529114 12.0873 1.04181C12.6 1.5545 12.6 2.38712 12.0873 2.89982L11.0455 3.93751H17.0625C19.2363 3.93751 21 5.70118 21 7.87501V9.18751C21 9.91349 20.4135 10.5 19.6875 10.5C18.9615 10.5 18.375 9.91349 18.375 9.18751V7.87501C18.375 7.14904 17.7885 6.56251 17.0625 6.56251H11.0455L12.0873 7.60431C12.6 8.117 12.6 8.94962 12.0873 9.46232C11.5746 9.97501 10.742 9.97501 10.2293 9.46232L6.94805 6.18107C6.43535 5.66837 6.43535 4.83575 6.94805 4.32306L10.2293 1.04181ZM10.7748 11.5418L14.0561 14.8231C14.5688 15.3358 14.5688 16.1684 14.0561 16.6811L10.7748 19.9623C10.2621 20.475 9.42949 20.475 8.9168 19.9623C8.4041 19.4496 8.4041 18.617 8.9168 18.1043L9.95449 17.0625H3.9375C3.21152 17.0625 2.625 17.649 2.625 18.375V19.6875C2.625 20.4135 2.03848 21 1.3125 21C0.586523 21 0 20.4135 0 19.6875V18.375C0 16.2012 1.76367 14.4375 3.9375 14.4375H9.95449L8.9127 13.3957C8.4 12.883 8.4 12.0504 8.9127 11.5377C9.42539 11.025 10.258 11.025 10.7707 11.5377L10.7748 11.5418ZM15.75 15.75C15.75 15.0538 16.0266 14.3861 16.5188 13.8939C17.0111 13.4016 17.6788 13.125 18.375 13.125C19.0712 13.125 19.7389 13.4016 20.2312 13.8939C20.7234 14.3861 21 15.0538 21 15.75C21 16.4462 20.7234 17.1139 20.2312 17.6062C19.7389 18.0985 19.0712 18.375 18.375 18.375C17.6788 18.375 17.0111 18.0985 16.5188 17.6062C16.0266 17.1139 15.75 16.4462 15.75 15.75ZM2.625 7.87501C1.92881 7.87501 1.26113 7.59845 0.768845 7.10617C0.276562 6.61388 0 5.94621 0 5.25001C0 4.55382 0.276562 3.88614 0.768845 3.39386C1.26113 2.90157 1.92881 2.62501 2.625 2.62501C3.32119 2.62501 3.98887 2.90157 4.48116 3.39386C4.97344 3.88614 5.25 4.55382 5.25 5.25001C5.25 5.94621 4.97344 6.61388 4.48116 7.10617C3.98887 7.59845 3.32119 7.87501 2.625 7.87501Z"/>
</svg>
