<svg width="21" height="19" viewBox="0 0 21 19" fill="none" xmlns="http://www.w3.org/2000/svg">
<path d="M20.9945 9.47959C20.9945 10.1474 20.4475 10.6706 19.8275 10.6706H18.6606L18.6861 16.6143C18.6861 16.7145 18.6788 16.8147 18.6678 16.9149V17.5159C18.6678 18.3359 18.0151 19 17.2091 19H16.6257C16.5855 19 16.5454 19 16.5053 18.9963C16.4543 19 16.4032 19 16.3521 19L15.1669 18.9963H14.2917C13.4858 18.9963 12.833 18.3322 12.833 17.5122V16.6218V14.2472C12.833 13.5905 12.3115 13.0599 11.666 13.0599H9.3321C8.68662 13.0599 8.16513 13.5905 8.16513 14.2472V16.6218V17.5122C8.16513 18.3322 7.51236 18.9963 6.70642 18.9963H5.8312H4.66787C4.61317 18.9963 4.55847 18.9926 4.50377 18.9889C4.46001 18.9926 4.41625 18.9963 4.37249 18.9963H3.789C2.98306 18.9963 2.33029 18.3322 2.33029 17.5122V13.3568C2.33029 13.3234 2.33029 13.2863 2.33394 13.2529V10.6669H1.16697C0.510549 10.6669 0 10.1474 0 9.47588C0 9.14196 0.109403 8.84515 0.364678 8.58543L9.71137 0.296817C9.96664 0.0371021 10.2584 0 10.5137 0C10.7689 0 11.0607 0.0742043 11.2795 0.259715L20.5933 8.58914C20.8851 8.84886 21.031 9.14567 20.9945 9.47959Z" fill="black"/>
</svg>
