<svg width="20" height="17" fill="#000000" viewBox="0 0 20 17" fill="none" xmlns="http://www.w3.org/2000/svg">
<path d="M19.7857 7.55357C19.7857 11.6571 15.5332 14.9821 10.2863 14.9821C8.90958 14.9821 7.6034 14.7536 6.42339 14.3429C5.98182 14.6536 5.26194 15.0786 4.40847 15.4357C3.5179 15.8071 2.4455 16.125 1.38052 16.125C1.13932 16.125 0.924103 15.9857 0.831335 15.7714C0.738567 15.5571 0.790517 15.3143 0.957499 15.15L0.968631 15.1393C0.979764 15.1286 0.994606 15.1143 1.01687 15.0893C1.05769 15.0464 1.12077 14.9786 1.1987 14.8857C1.35084 14.7071 1.55493 14.4429 1.76273 14.1143C2.1338 13.5214 2.48632 12.7429 2.55682 11.8679C1.4436 10.6536 0.786806 9.16429 0.786806 7.55357C0.786806 3.45 5.03929 0.125 10.2863 0.125C15.5332 0.125 19.7857 3.45 19.7857 7.55357Z"/>
</svg>
