<svg width="17" height="17" viewBox="0 0 17 17" fill="none" xmlns="http://www.w3.org/2000/svg">
<path d="M13.7863 6.62405C13.7863 8.05821 13.3207 9.38302 12.5363 10.4579L16.4927 14.4167C16.8834 14.8072 16.8834 15.4415 16.4927 15.8321C16.1021 16.2226 15.4677 16.2226 15.077 15.8321L11.1206 11.8733C10.0455 12.6607 8.72047 13.1231 7.28602 13.1231C3.69522 13.1231 0.785706 10.2141 0.785706 6.62405C0.785706 3.03395 3.69522 0.125 7.28602 0.125C10.8768 0.125 13.7863 3.03395 13.7863 6.62405ZM7.28602 11.1234C7.877 11.1234 8.46219 11.007 9.00818 10.7809C9.55417 10.5548 10.0503 10.2234 10.4682 9.80556C10.886 9.38776 11.2175 8.89176 11.4437 8.34587C11.6698 7.79999 11.7862 7.21491 11.7862 6.62405C11.7862 6.03319 11.6698 5.44811 11.4437 4.90222C11.2175 4.35634 10.886 3.86034 10.4682 3.44253C10.0503 3.02473 9.55417 2.69331 9.00818 2.4672C8.46219 2.24109 7.877 2.12471 7.28602 2.12471C6.69505 2.12471 6.10986 2.24109 5.56386 2.4672C5.01787 2.69331 4.52177 3.02473 4.10389 3.44253C3.686 3.86034 3.35452 4.35634 3.12836 4.90222C2.9022 5.44811 2.7858 6.03319 2.7858 6.62405C2.7858 7.21491 2.9022 7.79999 3.12836 8.34587C3.35452 8.89176 3.686 9.38776 4.10389 9.80556C4.52177 10.2234 5.01787 10.5548 5.56386 10.7809C6.10986 11.007 6.69505 11.1234 7.28602 11.1234Z" fill="black"/>
</svg>
