<svg viewBox="0 0 26 23" fill="#000000" xmlns="http://www.w3.org/2000/svg">
  <path d="M11.0652 3.79397L17.3012 10.0984C17.6668 10.4681 17.875 10.9763 17.875 11.5C17.875 12.0237 17.6668 12.5319 17.3012 12.9016L11.0652 19.206C10.7402 19.5346 10.3035 19.7143 9.84648 19.7143C8.89687 19.7143 8.125 18.9339 8.125 17.9739V14.7857H1.625C0.726172 14.7857 0 14.0516 0 13.1429V9.85714C0 8.94844 0.726172 8.21429 1.625 8.21429H8.125V5.02612C8.125 4.06607 8.89687 3.28571 9.84648 3.28571C10.3035 3.28571 10.7402 3.47054 11.0652 3.79397ZM17.875 19.7143H21.125C22.0238 19.7143 22.75 18.9801 22.75 18.0714V4.92857C22.75 4.01987 22.0238 3.28571 21.125 3.28571H17.875C16.9762 3.28571 16.25 2.55156 16.25 1.64286C16.25 0.734152 16.9762 0 17.875 0H21.125C23.8164 0 26 2.20759 26 4.92857V18.0714C26 20.7924 23.8164 23 21.125 23H17.875C16.9762 23 16.25 22.2658 16.25 21.3571C16.25 20.4484 16.9762 19.7143 17.875 19.7143Z"/>
</svg>
