<svg width="20" height="20" viewBox="0 0 20 20" fill="#000000" xmlns="http://www.w3.org/2000/svg">
<path d="M19.4569 0.218655C19.8515 0.492093 20.0585 0.964749 19.9843 1.43741L17.4843 17.6874C17.4257 18.0663 17.1952 18.3983 16.8593 18.5858C16.5234 18.7733 16.121 18.7968 15.7655 18.6483L11.0937 16.7069L8.41789 19.6015C8.07023 19.9804 7.52336 20.1054 7.04289 19.9179C6.56242 19.7304 6.24992 19.2655 6.24992 18.7499V15.4843C6.24992 15.328 6.30851 15.1796 6.41398 15.0624L12.9609 7.92178C13.1874 7.67569 13.1796 7.29678 12.9452 7.06241C12.7109 6.82803 12.3319 6.81241 12.0859 7.03506L4.14054 14.0937L0.691325 12.3671C0.277262 12.1601 0.0116373 11.746 -8.1424e-05 11.2851C-0.0118002 10.8241 0.230387 10.3944 0.628825 10.164L18.1288 0.163968C18.5468 -0.0743135 19.0624 -0.050876 19.4569 0.218655Z" />
</svg>
