<svg width="26" height="21" viewBox="0 0 26 21" fill="#000000" xmlns="http://www.w3.org/2000/svg">
<path d="M3.9 5.25C3.9 3.85761 4.44785 2.52226 5.42304 1.53769C6.39823 0.553123 7.72087 0 9.1 0C10.4791 0 11.8018 0.553123 12.777 1.53769C13.7521 2.52226 14.3 3.85761 14.3 5.25C14.3 6.64239 13.7521 7.97775 12.777 8.96231C11.8018 9.94688 10.4791 10.5 9.1 10.5C7.72087 10.5 6.39823 9.94688 5.42304 8.96231C4.44785 7.97775 3.9 6.64239 3.9 5.25ZM0 19.7818C0 15.7418 3.24187 12.4688 7.24344 12.4688H10.9566C14.9581 12.4688 18.2 15.7418 18.2 19.7818C18.2 20.4545 17.6597 21 16.9934 21H1.20656C0.540313 21 0 20.4545 0 19.7818ZM24.7528 21H19.1547C19.3741 20.6145 19.5041 20.1674 19.5041 19.6875V19.3594C19.5041 16.8697 18.4031 14.6344 16.6684 13.1332C16.7659 13.1291 16.8594 13.125 16.9569 13.125H19.4512C23.0669 13.125 26 16.0863 26 19.7408C26 20.4381 25.4394 21 24.7528 21ZM17.55 10.5C16.2906 10.5 15.1531 9.9832 14.3284 9.15059C15.1287 8.05957 15.6 6.71016 15.6 5.25C15.6 4.15078 15.3319 3.11309 14.8566 2.20254C15.6122 1.64473 16.5425 1.3125 17.55 1.3125C20.0647 1.3125 22.1 3.36738 22.1 5.90625C22.1 8.44512 20.0647 10.5 17.55 10.5Z"/>
</svg>
