<svg width="18" height="18" viewBox="0 0 18 18" fill="#000000" xmlns="http://www.w3.org/2000/svg">
  <path d="M9 18C11.3869 18 13.6761 17.0518 15.364 15.364C17.0518 13.6761 18 11.3869 18 9C18 6.61305 17.0518 4.32387 15.364 2.63604C13.6761 0.948212 11.3869 0 9 0C6.61305 0 4.32387 0.948212 2.63604 2.63604C0.948212 4.32387 0 6.61305 0 9C0 11.3869 0.948212 13.6761 2.63604 15.364C4.32387 17.0518 6.61305 18 9 18ZM9 5.625C9.89511 5.625 10.7536 5.98058 11.3865 6.61351C12.0194 7.24645 12.375 8.10489 12.375 9C12.375 9.89511 12.0194 10.7536 11.3865 11.3865C10.7536 12.0194 9.89511 12.375 9 12.375C8.10489 12.375 7.24645 12.0194 6.61351 11.3865C5.98058 10.7536 5.625 9.89511 5.625 9C5.625 8.10489 5.98058 7.24645 6.61351 6.61351C7.24645 5.98058 8.10489 5.625 9 5.625Z"/>
</svg>
