<svg viewBox="0 0 44 25" fill="#000000" xmlns="http://www.w3.org/2000/svg">
<path d="M29.3391 4.875C27.987 4.875 26.8946 3.78574 26.8946 2.4375C26.8946 1.08926 27.987 0 29.3391 0H41.5613C42.9134 0 44.0057 1.08926 44.0057 2.4375V14.625C44.0057 15.9732 42.9134 17.0625 41.5613 17.0625C40.2092 17.0625 39.1168 15.9732 39.1168 14.625V8.32559L26.1766 21.2215C25.2217 22.1736 23.671 22.1736 22.7161 21.2215L14.6724 13.2006L4.17656 23.659C3.2217 24.6111 1.67101 24.6111 0.716146 23.659C-0.238715 22.7068 -0.238715 21.1605 0.716146 20.2084L12.9384 8.0209C13.8932 7.06875 15.4439 7.06875 16.3988 8.0209L24.4502 16.0494L35.6564 4.875H29.3391Z"/>
</svg>
