<svg viewBox="0 0 20 23" fill="#000000" xmlns="http://www.w3.org/2000/svg">
  <path d="M6.03571 0.795117L5.71429 1.4375H1.42857C0.638393 1.4375 0 2.07988 0 2.875C0 3.67012 0.638393 4.3125 1.42857 4.3125H18.5714C19.3616 4.3125 20 3.67012 20 2.875C20 2.07988 19.3616 1.4375 18.5714 1.4375H14.2857L13.9643 0.795117C13.7232 0.305469 13.2277 0 12.6875 0H7.3125C6.77232 0 6.27679 0.305469 6.03571 0.795117ZM18.5714 5.75H1.42857L2.375 20.9785C2.44643 22.115 3.38393 23 4.51339 23H15.4866C16.6161 23 17.5536 22.115 17.625 20.9785L18.5714 5.75Z"/>
</svg>
