<?xml version="1.0" standalone="no"?>
<!DOCTYPE svg PUBLIC "-//W3C//DTD SVG 20010904//EN"
 "http://www.w3.org/TR/2001/REC-SVG-20010904/DTD/svg10.dtd">
<svg version="1.0" xmlns="http://www.w3.org/2000/svg"
 width="640.000000pt" height="640.000000pt" viewBox="0 0 640.000000 640.000000"
 preserveAspectRatio="xMidYMid meet">
<metadata>
Created by potrace 1.14, written by Peter Selinger 2001-2017
</metadata>
<g transform="translate(0.000000,640.000000) scale(0.100000,-0.100000)"
fill="#000000" stroke="none">
<path d="M1278 5444 c-2 -1 -23 -5 -48 -9 -109 -15 -214 -104 -250 -210 -11
-33 -20 -72 -19 -85 0 -29 0 -168 0 -190 -1 -8 -1 -31 0 -50 0 -19 0 -44 0
-55 -5 -82 -5 -125 -1 -125 3 0 5 -25 5 -55 0 -30 -2 -55 -5 -55 -3 0 -4 -29
-2 -64 l4 -63 -31 -5 c-17 -3 -33 -2 -36 0 -7 7 -85 8 -85 1 0 -3 -22 -3 -50
1 -27 4 -50 4 -50 1 0 -3 -28 -5 -62 -4 -63 2 -169 -27 -176 -47 -2 -6 -9 -10
-16 -10 -18 0 -82 -76 -105 -125 -11 -23 -22 -60 -26 -83 -7 -52 -10 -201 -3
-208 3 -2 2 -22 -2 -44 -4 -21 -4 -44 1 -51 4 -7 6 -16 3 -20 -2 -4 -4 -31 -4
-61 0 -29 0 -62 0 -73 0 -11 0 -36 1 -55 0 -19 0 -42 0 -50 -1 -8 -1 -41 0
-72 0 -49 -3 -58 -18 -59 -125 -6 -243 -95 -284 -216 -62 -186 56 -387 245
-417 21 -4 42 -9 47 -12 5 -2 9 -53 9 -112 0 -59 1 -114 1 -122 1 -8 1 -76 0
-150 0 -74 -1 -144 0 -155 0 -11 -1 -42 -1 -70 -1 -146 65 -257 188 -316 47
-22 133 -31 287 -29 99 1 148 -1 157 -6 9 -6 10 -45 5 -182 -1 -28 1 -52 4
-52 3 0 3 -20 -1 -45 -4 -25 -4 -48 0 -50 4 -3 4 -22 0 -44 -4 -22 -4 -45 1
-52 4 -7 6 -16 3 -21 -3 -4 -5 -27 -5 -50 1 -198 10 -250 52 -311 51 -74 133
-129 209 -141 41 -6 148 -8 238 -4 34 2 62 1 62 -2 0 -6 93 -3 140 5 56 10
132 54 177 104 50 54 81 138 83 221 0 30 2 99 3 153 1 53 -2 97 -6 97 -5 0 -6
4 -3 9 5 8 7 68 5 131 0 8 0 31 0 50 1 19 1 44 1 55 -1 39 -1 290 0 303 0 6 0
18 1 25 0 6 0 30 0 52 -1 22 0 66 1 98 2 31 1 57 -2 57 -3 0 -4 28 -3 62 2 49
3 250 2 398 0 8 0 49 0 90 0 41 1 84 0 95 0 11 1 43 1 71 0 29 0 56 -1 60 -1
5 -1 14 0 19 1 6 2 51 1 100 -1 50 -1 97 -1 105 2 78 0 113 -4 121 -4 5 -2 9
3 9 4 0 6 23 2 50 -4 28 -4 50 -1 50 7 0 5 119 -2 126 -2 2 -1 22 3 44 4 21 4
44 0 50 -4 6 -4 26 -1 43 4 18 4 51 1 75 -4 23 -4 42 0 42 3 0 4 23 0 50 -4
28 -4 50 -1 50 7 0 5 119 -2 126 -2 2 -1 22 3 44 4 21 4 44 -1 51 -4 7 -6 16
-4 19 3 6 6 94 4 130 0 8 -1 76 0 150 0 74 0 142 0 150 0 8 0 80 0 160 0 80 0
154 0 165 0 11 1 43 1 70 1 106 -27 181 -93 248 -63 63 -125 89 -227 94 -47 2
-95 5 -107 7 -13 2 -23 0 -23 -4 0 -3 -22 -4 -50 0 -27 4 -50 3 -50 0 0 -4
-20 -4 -45 0 -25 4 -46 6 -47 4z"/>
<path d="M4827 5444 c-1 -1 -28 -4 -59 -8 -32 -3 -77 -15 -101 -26 -51 -24
-127 -88 -127 -107 0 -7 -4 -13 -9 -13 -14 0 -43 -89 -48 -145 -8 -99 -8 -285
0 -285 5 0 6 -4 3 -9 -5 -8 -7 -68 -5 -131 0 -8 0 -31 0 -50 -1 -19 -1 -44 -1
-55 1 -39 1 -290 0 -302 0 -7 0 -19 -1 -25 0 -7 0 -31 0 -53 1 -22 0 -66 -1
-98 -2 -31 -1 -57 2 -57 3 0 4 -28 3 -62 -7 -184 -7 -438 0 -438 5 0 6 -4 3
-9 -5 -8 -7 -68 -5 -131 0 -8 0 -31 0 -50 -1 -19 -1 -44 -1 -55 1 -39 1 -290
0 -302 0 -7 0 -19 -1 -25 0 -7 0 -31 0 -53 1 -22 0 -66 -1 -98 -2 -31 -1 -57
2 -57 3 0 4 -28 3 -62 -7 -184 -7 -438 0 -438 5 0 6 -4 3 -9 -5 -8 -7 -68 -5
-131 0 -8 0 -31 0 -50 -1 -19 -1 -44 -1 -55 1 -39 1 -290 0 -302 0 -7 0 -19
-1 -25 0 -7 0 -31 0 -53 1 -22 0 -66 -1 -98 -2 -31 -1 -57 2 -57 3 0 4 -28 2
-62 -8 -175 0 -251 31 -317 54 -115 170 -182 312 -181 28 0 59 1 70 1 256 -2
297 1 361 31 49 22 124 86 124 105 0 7 4 13 9 13 11 0 42 83 47 128 3 20 4 62
4 92 -1 64 -2 59 2 133 2 31 1 57 -2 57 -3 0 -4 28 -2 62 1 35 2 78 2 96 0 17
-1 40 -1 50 1 9 1 56 1 103 l1 87 38 4 c21 2 49 1 62 -2 13 -3 42 -3 65 0 22
4 49 4 58 0 31 -11 186 10 230 30 50 24 126 88 126 107 0 7 4 13 9 13 12 0 42
83 47 128 3 30 5 191 3 262 0 8 0 80 0 160 0 80 0 153 0 163 0 90 3 105 21
100 10 -3 48 5 83 16 77 26 149 90 187 166 35 70 35 197 0 269 -51 105 -160
180 -272 185 -13 1 -17 10 -18 34 0 17 0 41 0 52 -1 11 0 43 0 71 0 29 0 56
-1 60 -1 5 -1 11 0 14 1 3 1 70 1 150 -1 160 -1 163 0 235 1 106 -27 181 -93
248 -82 82 -152 100 -382 97 -99 -1 -148 1 -157 6 -9 6 -10 45 -5 182 1 28 -1
52 -4 52 -3 0 -3 20 1 45 4 25 4 48 0 50 -4 3 -4 22 0 44 4 22 4 45 -1 52 -4
7 -6 16 -3 21 6 9 6 66 1 183 -4 107 -29 167 -93 231 -61 59 -122 85 -219 91
-68 4 -128 5 -154 1 -3 0 -8 0 -11 1 -6 2 -131 7 -133 5z"/>
<path d="M2285 3522 c-16 -2 -34 -7 -38 -11 -6 -6 -8 -69 -6 -211 0 -44 -1
-241 -2 -280 0 -25 0 -52 0 -60 1 -8 1 -29 1 -46 0 -23 5 -33 20 -37 11 -3 20
-2 20 2 0 4 20 5 45 1 24 -4 49 -4 55 0 6 4 31 4 56 0 24 -4 47 -3 50 2 3 4 9
6 13 4 9 -6 148 -8 239 -4 34 2 62 1 62 -2 0 -3 26 -4 57 -2 32 1 74 2 93 1
19 0 44 0 55 1 25 2 13 2 175 1 74 -1 163 0 198 1 34 2 62 1 62 -2 0 -3 26 -4
57 -2 32 1 74 2 93 1 19 0 44 0 55 1 11 1 27 1 35 1 8 0 62 0 120 0 58 0 112
0 120 0 8 0 35 0 60 0 54 0 50 1 122 -3 51 -3 57 -1 61 19 2 12 1 27 -3 33 -4
6 -4 31 0 56 4 24 4 47 0 49 -4 3 -4 22 0 44 4 22 4 45 0 51 -4 6 -4 26 -1 43
4 18 4 51 1 75 -4 23 -4 42 0 42 3 0 4 23 0 50 -4 28 -4 50 -1 50 3 0 4 29 3
65 l-4 65 -39 -3 c-21 -2 -39 -1 -39 2 0 3 -26 5 -57 3 -69 -3 -57 -3 -168 -3
-49 0 -99 0 -110 0 -11 0 -95 1 -187 3 -93 2 -168 0 -168 -3 0 -3 -22 -3 -50
1 -27 4 -50 3 -50 0 0 -4 -19 -4 -42 0 -24 3 -57 3 -75 -1 -17 -3 -37 -3 -43
1 -6 4 -29 4 -50 0 -22 -4 -42 -5 -44 -2 -3 2 -58 4 -123 3 -144 -2 -117 -2
-305 1 -87 2 -158 1 -158 -2 0 -6 -115 -4 -127 2 -4 2 -21 2 -38 0z"/>
</g>
</svg>
