<?xml version="1.0" standalone="no"?>
<!DOCTYPE svg PUBLIC "-//W3C//DTD SVG 20010904//EN"
 "http://www.w3.org/TR/2001/REC-SVG-20010904/DTD/svg10.dtd">
<svg version="1.0" xmlns="http://www.w3.org/2000/svg"
 width="512.000000pt" height="512.000000pt" viewBox="0 0 512.000000 512.000000"
 preserveAspectRatio="xMidYMid meet">
<metadata>
Created by potrace 1.14, written by Peter Selinger 2001-2017
</metadata>
<g transform="translate(0.000000,512.000000) scale(0.100000,-0.100000)"
fill="#000000" stroke="none">
<path d="M2375 4929 c-169 -19 -213 -27 -325 -55 -661 -170 -1234 -615 -1529
-1188 -32 -62 -62 -124 -66 -137 -4 -13 -13 -37 -20 -54 -18 -41 -64 -188 -70
-228 -3 -17 -9 -41 -12 -52 -3 -11 -7 -29 -9 -40 -1 -11 -6 -45 -10 -75 -10
-67 -11 -318 -2 -380 88 -597 652 -1415 1433 -2077 249 -211 509 -378 683
-439 88 -31 175 -28 277 9 397 143 1067 734 1502 1323 72 98 223 320 223 329
0 1 17 32 38 66 122 201 247 507 283 689 6 30 13 66 15 80 12 57 10 353 -2
417 -7 38 -15 84 -18 103 -8 57 -54 209 -88 295 -134 338 -386 667 -698 911
-328 256 -771 448 -1126 489 -27 3 -58 8 -68 12 -28 8 -342 10 -411 2z"/>
</g>
</svg>
